<?xml version="1.0" encoding="UTF-8"?>
<!--Generator: Apple Native CoreSVG 232.5-->
<!DOCTYPE svg
PUBLIC "-//W3C//DTD SVG 1.1//EN"
       "http://www.w3.org/Graphics/SVG/1.1/DTD/svg11.dtd">
<svg version="1.1" xmlns="http://www.w3.org/2000/svg" xmlns:xlink="http://www.w3.org/1999/xlink" width="33.4531" height="31.9531">
 <g>
  <rect height="31.9531" opacity="0" width="33.4531" x="0" y="0"/>
  <path d="M2.84375 31.9531C3.57812 31.9531 4.14062 31.6406 4.92188 31.25L31.4375 18.4062C32.9531 17.6719 33.4531 16.9688 33.4531 15.9844C33.4531 15.0156 32.9531 14.3125 31.4375 13.5625L4.92188 0.734375C4.125 0.34375 3.5625 0.03125 2.82812 0.03125C1.48438 0.03125 0.640625 1.04688 0.640625 2.65625L0.65625 29.3281C0.65625 30.9219 1.5 31.9531 2.84375 31.9531ZM3.65625 28.7031C3.51562 28.7031 3.42188 28.5938 3.42188 28.375L3.42188 3.59375C3.42188 3.375 3.51562 3.28125 3.65625 3.28125C3.78125 3.28125 3.875 3.32812 3.98438 3.39062L29.5469 15.6719C29.6719 15.7344 29.8125 15.8438 29.8125 15.9844C29.8125 16.1406 29.6719 16.25 29.5469 16.3125L3.98438 28.5938C3.875 28.6406 3.78125 28.7031 3.65625 28.7031Z" fill="#ffffff" fill-opacity="0.85"/>
 </g>
</svg>
