<?xml version="1.0" encoding="UTF-8"?>
<!--Generator: Apple Native CoreSVG 232.5-->
<!DOCTYPE svg
PUBLIC "-//W3C//DTD SVG 1.1//EN"
       "http://www.w3.org/Graphics/SVG/1.1/DTD/svg11.dtd">
<svg version="1.1" xmlns="http://www.w3.org/2000/svg" xmlns:xlink="http://www.w3.org/1999/xlink" width="37.8125" height="30.2656">
 <g>
  <rect height="30.2656" opacity="0" width="37.8125" x="0" y="0"/>
  <path d="M37.4375 15.125C37.4375 14.7031 37.2656 14.3125 36.9219 13.9844L23.5 0.546875C23.0938 0.140625 22.7188 0 22.3125 0C21.4688 0 20.8125 0.625 20.8125 1.46875C20.8125 1.875 20.9531 2.26562 21.2344 2.54688L26.7031 8.09375L34 14.8281L34.3594 13.9375L28.2188 13.6094L1.5 13.6094C0.625 13.6094 0 14.2344 0 15.125C0 16 0.625 16.6406 1.5 16.6406L28.2188 16.6406L34.3594 16.2969L34 15.4219L26.7031 22.1562L21.2344 27.6875C20.9688 27.9688 20.8125 28.375 20.8125 28.7812C20.8125 29.625 21.4688 30.25 22.3125 30.25C22.7188 30.25 23.0781 30.0938 23.4219 29.7812L36.9219 16.25C37.2656 15.9375 37.4375 15.5469 37.4375 15.125Z" fill="#ffffff" fill-opacity="0.85"/>
 </g>
</svg>
