<?xml version="1.0" encoding="UTF-8"?>
<!--Generator: Apple Native CoreSVG 232.5-->
<!DOCTYPE svg
PUBLIC "-//W3C//DTD SVG 1.1//EN"
       "http://www.w3.org/Graphics/SVG/1.1/DTD/svg11.dtd">
<svg version="1.1" xmlns="http://www.w3.org/2000/svg" xmlns:xlink="http://www.w3.org/1999/xlink" width="37.6406" height="34.1719">
 <g>
  <rect height="34.1719" opacity="0" width="37.6406" x="0" y="0"/>
  <path d="M19.5781 34.125C20.0156 34.125 20.3906 33.9531 20.6875 33.6562L36.7344 18.25C37.0781 17.9219 37.2656 17.5312 37.2656 17.0781C37.2656 16.625 37.0625 16.1875 36.7188 15.875L20.6719 0.46875C20.375 0.171875 20.0156 0 19.5781 0C18.6875 0 18.0156 0.671875 18.0156 1.5625C18.0156 1.96875 18.1875 2.375 18.4531 2.67188L34.4375 18.0156L34.4375 16.1094L18.4531 31.4688C18.1875 31.75 18.0156 32.1406 18.0156 32.5781C18.0156 33.4531 18.6875 34.125 19.5781 34.125Z" fill="#ffffff" fill-opacity="0.85"/>
  <path d="M1.5625 34.125C2 34.125 2.375 33.9531 2.67188 33.6562L18.7188 18.25C19.0625 17.9219 19.25 17.5312 19.25 17.0781C19.25 16.625 19.0469 16.1875 18.7031 15.875L2.65625 0.46875C2.35938 0.171875 2 0 1.5625 0C0.671875 0 0 0.671875 0 1.5625C0 1.96875 0.171875 2.375 0.4375 2.67188L16.4219 18.0156L16.4219 16.1094L0.4375 31.4688C0.171875 31.75 0 32.1406 0 32.5781C0 33.4531 0.671875 34.125 1.5625 34.125Z" fill="#ffffff" fill-opacity="0.85"/>
 </g>
</svg>
