<?xml version="1.0" encoding="UTF-8"?>
<!--Generator: Apple Native CoreSVG 232.5-->
<!DOCTYPE svg
PUBLIC "-//W3C//DTD SVG 1.1//EN"
       "http://www.w3.org/Graphics/SVG/1.1/DTD/svg11.dtd">
<svg version="1.1" xmlns="http://www.w3.org/2000/svg" xmlns:xlink="http://www.w3.org/1999/xlink" width="36.8594" height="7.32812">
 <g>
  <rect height="7.32812" opacity="0" width="36.8594" x="0" y="0"/>
  <path d="M32.8281 7.29688C34.8438 7.29688 36.4844 5.67188 36.4844 3.65625C36.4844 1.625 34.8438 0 32.8281 0C30.8125 0 29.1719 1.625 29.1719 3.65625C29.1719 5.67188 30.8125 7.29688 32.8281 7.29688Z" fill="#ffffff" fill-opacity="0.85"/>
  <path d="M18.2344 7.29688C20.2656 7.29688 21.8906 5.67188 21.8906 3.65625C21.8906 1.625 20.2656 0 18.2344 0C16.2188 0 14.5938 1.625 14.5938 3.65625C14.5938 5.67188 16.2188 7.29688 18.2344 7.29688Z" fill="#ffffff" fill-opacity="0.85"/>
  <path d="M3.65625 7.29688C5.67188 7.29688 7.3125 5.67188 7.3125 3.65625C7.3125 1.625 5.67188 0 3.65625 0C1.625 0 0 1.625 0 3.65625C0 5.67188 1.625 7.29688 3.65625 7.29688Z" fill="#ffffff" fill-opacity="0.85"/>
 </g>
</svg>
