<?xml version="1.0" encoding="UTF-8"?>
<!--Generator: Apple Native CoreSVG 232.5-->
<!DOCTYPE svg
PUBLIC "-//W3C//DTD SVG 1.1//EN"
       "http://www.w3.org/Graphics/SVG/1.1/DTD/svg11.dtd">
<svg version="1.1" xmlns="http://www.w3.org/2000/svg" xmlns:xlink="http://www.w3.org/1999/xlink" width="18.7656" height="44.5156">
 <g>
  <rect height="44.5156" opacity="0" width="18.7656" x="0" y="0"/>
  <path d="M0 26.7344C0 27.7031 0.78125 28.4688 1.73438 28.4688C2.70312 28.4688 3.48438 27.7031 3.48438 26.7344L3.48438 19.0781C3.48438 18.7344 3.75 18.4531 4.10938 18.4531C4.45312 18.4531 4.73438 18.7344 4.73438 19.0781L4.73438 42.2656C4.73438 43.3281 5.57812 44.1875 6.64062 44.1875C7.70312 44.1875 8.5625 43.3281 8.5625 42.2656L8.5625 28.1406C8.5625 27.7969 8.84375 27.5 9.20312 27.5C9.54688 27.5 9.84375 27.7969 9.84375 28.1406L9.84375 42.2656C9.84375 43.3281 10.6875 44.1875 11.75 44.1875C12.8125 44.1875 13.6719 43.3281 13.6719 42.2656L13.6719 19.0781C13.6719 18.7344 13.9375 18.4531 14.2969 18.4531C14.6406 18.4531 14.9219 18.7344 14.9219 19.0781L14.9219 26.7344C14.9219 27.7031 15.6875 28.4688 16.6562 28.4688C17.625 28.4688 18.3906 27.7031 18.3906 26.7344L18.3906 18.1875C18.3906 13.8125 15.2031 10.9219 10.5938 10.9219L7.79688 10.9219C3.20312 10.9219 0 13.8125 0 18.1875ZM9.20312 8.60938C11.5781 8.60938 13.5 6.6875 13.5 4.29688C13.5 1.90625 11.5781 0 9.20312 0C6.8125 0 4.89062 1.90625 4.89062 4.29688C4.89062 6.6875 6.8125 8.60938 9.20312 8.60938Z" fill="#ffffff" fill-opacity="0.85"/>
 </g>
</svg>
