<?xml version="1.0" encoding="UTF-8"?>
<!--Generator: Apple Native CoreSVG 232.5-->
<!DOCTYPE svg
PUBLIC "-//W3C//DTD SVG 1.1//EN"
       "http://www.w3.org/Graphics/SVG/1.1/DTD/svg11.dtd">
<svg version="1.1" xmlns="http://www.w3.org/2000/svg" xmlns:xlink="http://www.w3.org/1999/xlink" width="51.5" height="51.6719">
 <g>
  <rect height="51.6719" opacity="0" width="51.5" x="0" y="0"/>
  <path d="M25.5625 51.6719C27.3281 51.6719 28.5312 51.1094 28.5312 50.25C28.5312 49.0469 28.1875 45.9375 28.1875 42.7656C28.1875 39.0781 31.0312 33.125 34.25 27.1562L31.7969 25.6562C29.3281 30.1562 28.1406 32.4375 27.0781 34.875L27 25.7188L24.0156 25.5781L24.0469 34.8906C23 32.4531 21.7031 30 19.4688 26.125L17.5156 28.6406C20.0938 33.125 22.9375 39.0781 22.9375 42.7656C22.9375 45.9375 22.5938 49.0469 22.5938 50.25C22.5938 51.1094 23.7969 51.6719 25.5625 51.6719Z" fill="#ffffff" fill-opacity="0.85"/>
  <path d="M0 31.1875C0 35.9375 3.15625 39.1875 7.75 39.1875C9.21875 39.1875 10.7969 38.7969 12.5 37.9375C13.8594 39.2344 17.125 40.7344 20.5156 40.7812C19.8438 37.6562 17.7812 33.4688 16.4219 31.0312C19.25 30.6719 20.8281 29.0469 21.5781 26.8281C22.6875 27.6719 23.9219 28.125 25.5625 28.125C27.2031 28.125 28.4375 27.6719 29.5469 26.8281C30.2969 29.0469 31.875 30.6719 34.7188 31.0312C33.3438 33.4688 31.2969 37.6562 30.6094 40.7812C34 40.7344 37.2656 39.2344 38.625 37.9375C40.3281 38.7969 41.9062 39.1875 43.375 39.1875C47.9688 39.1875 51.125 35.9375 51.125 31.1875C51.125 28.75 50.125 26.2188 47.8125 23.9219C49.6562 22.0312 50.4062 19.8281 50.4062 17.5625C50.4062 12.8281 46.7188 8.53125 42.1875 8.04688C42.0312 3.4375 37.0469 0.140625 32.1406 0.140625C29.625 0.140625 27.2969 0.96875 25.5625 2.79688C23.8281 0.96875 21.5 0.140625 18.9844 0.140625C14.0781 0.140625 9.09375 3.4375 8.9375 8.04688C4.40625 8.53125 0.71875 12.8281 0.71875 17.5625C0.71875 19.8281 1.46875 22.0312 3.3125 23.9219C1 26.2188 0 28.75 0 31.1875Z" fill="#ffffff" fill-opacity="0.85"/>
 </g>
</svg>
