<?xml version="1.0" encoding="UTF-8" standalone="no"?><!DOCTYPE svg PUBLIC "-//W3C//DTD SVG 1.1//EN" "http://www.w3.org/Graphics/SVG/1.1/DTD/svg11.dtd"><svg width="100%" height="100%" viewBox="0 0 384 384" version="1.1" xmlns="http://www.w3.org/2000/svg" xmlns:xlink="http://www.w3.org/1999/xlink" xml:space="preserve" xmlns:serif="http://www.serif.com/" style="fill-rule:evenodd;clip-rule:evenodd;stroke-linejoin:round;stroke-miterlimit:2;"><g id="Comedot-0.2" serif:id="Comedot 0.2"><path d="M72.283,0l-72.283,311.717l311.717,72.283l72.283,-311.717l-311.717,-72.283Z" style="fill:#0097ff;"/><g id="Mouth---Text" serif:id="Mouth &amp; Text"><path id="Mouth-Cut" serif:id="Mouth Cut" d="M352.529,208l-20.638,89l-241.891,-0l0,-89l262.529,-0Z"/><g transform="matrix(72,0,0,72,345.874,271.864)"></g><text x="97.906px" y="271.864px" style="font-family:'BMDoHyeon-OTF', 'BM Dohyeon', sans-serif;font-size:72px;fill:url(#_Linear1);">GODOT</text><path id="Godot-T-Extender" serif:id="Godot T Extender" d="M346.774,232.819l-10.774,-0l-0,-11.342l13.404,-0l-2.63,11.342Z" style="fill:#ff0073;"/><path id="Tooth-Bottom-Right" serif:id="Tooth Bottom Right" d="M236,299.989l28.283,28.283l28.283,-28.283l-28.283,-28.283l-28.283,28.283Z" style="fill:#0097ff;"/><path id="Tooth-Bottom-Left" serif:id="Tooth Bottom Left" d="M156,299.989l28.283,28.283l28.283,-28.283l-28.283,-28.283l-28.283,28.283Z" style="fill:#0097ff;"/><path id="Tooth-Top" serif:id="Tooth Top" d="M195.5,208l28.283,28.283l28.283,-28.283l-28.283,-28.283l-28.283,28.283Z" style="fill:#0097ff;"/></g><path id="Eye-Left" serif:id="Eye Left" d="M80,116l56.566,56.566l56.567,-56.566l-56.567,-56.566l-56.566,56.566Z"/><path id="Eye-RIght" serif:id="Eye RIght" d="M206,136l56.566,56.566l56.567,-56.566l-56.567,-56.566l-56.566,56.566Z"/></g><defs><linearGradient id="_Linear1" x1="0" y1="0" x2="1" y2="0" gradientUnits="userSpaceOnUse" gradientTransform="matrix(232.701,0,0,58.7971,106.783,252.899)"><stop offset="0" style="stop-color:#b100ff;stop-opacity:1"/><stop offset="0.25" style="stop-color:#0ff;stop-opacity:1"/><stop offset="0.5" style="stop-color:#60ff00;stop-opacity:1"/><stop offset="0.75" style="stop-color:#e9ff00;stop-opacity:1"/><stop offset="1" style="stop-color:#ff0087;stop-opacity:1"/></linearGradient></defs></svg>