<?xml version="1.0" encoding="UTF-8" standalone="no"?><!DOCTYPE svg PUBLIC "-//W3C//DTD SVG 1.1//EN" "http://www.w3.org/Graphics/SVG/1.1/DTD/svg11.dtd"><svg width="100%" height="100%" viewBox="0 0 384 384" version="1.1" xmlns="http://www.w3.org/2000/svg" xmlns:xlink="http://www.w3.org/1999/xlink" xml:space="preserve" xmlns:serif="http://www.serif.com/" style="fill-rule:evenodd;clip-rule:evenodd;stroke-linejoin:round;stroke-miterlimit:2;"><g id="Comedot-0.3" serif:id="Comedot 0.3"><path d="M72.283,0l-72.283,311.717l311.717,72.283l72.283,-311.717l-311.717,-72.283Z" style="fill:#0097ff;"/><g id="Mouth---Text" serif:id="Mouth &amp; Text"><path id="Mouth-Cut" serif:id="Mouth Cut" d="M352.529,208l-20.638,89l-241.891,-0l0,-89l262.529,-0Z"/><path id="T-Extension" serif:id="T Extension" d="M346.408,234.397l-10.408,0l0,-10.833l12.92,0l-2.512,10.833Z" style="fill:#ff0075;"/><g id="GODOT"><path d="M131.638,272.071l-7.59,0c-4.002,0 -6.693,-3.381 -6.693,-7.452l-0,-23.391c-0,-4.071 2.691,-7.452 6.693,-7.452l7.245,0c3.381,0 4.968,2.346 5.658,5.382l10.626,0c-0.828,-8.763 -7.245,-15.594 -16.215,-15.594l-7.383,0c-9.384,0 -17.043,7.659 -17.043,17.112l-0,24.564c-0,9.384 7.659,17.043 17.043,17.043l5.934,0c2.76,0 5.451,-0.69 7.866,-1.863l-0,1.863l9.867,0l-0,-34.293l-19.665,0l-0,9.177l9.798,0l-0,9.729c-0.69,2.967 -2.829,5.175 -6.141,5.175Z" style="fill:#d562ff;fill-rule:nonzero;"/><path d="M172.072,223.564c-9.384,0 -17.043,7.659 -17.043,17.112l-0,24.564c-0,9.384 7.659,17.043 17.043,17.043l6.693,0c9.453,0 17.043,-7.659 17.043,-17.043l-0,-24.564c-0,-9.453 -7.59,-17.112 -17.043,-17.112l-6.693,0Zm13.179,41.055c-0,4.071 -2.553,7.452 -6.555,7.452l-6.555,0c-4.002,0 -6.555,-3.381 -6.555,-7.452l-0,-23.391c-0,-4.071 2.553,-7.452 6.555,-7.452l6.555,0c4.002,0 6.555,3.381 6.555,7.452l-0,23.391Z" style="fill:#00feff;fill-rule:nonzero;"/><path d="M204.088,282.283l26.772,0c7.728,0 13.938,-6.969 13.938,-15.525l-0,-27.669c-0,-8.556 -6.21,-15.525 -13.938,-15.525l-26.772,0l-0,58.719Zm10.764,-10.833l-0,-37.122l13.386,0c3.243,0 5.865,2.967 5.865,6.486l-0,24.15c-0,3.588 -2.622,6.486 -5.865,6.486l-13.386,0Z" style="fill:#0f0;fill-rule:nonzero;"/><path d="M269.5,223.564c-9.384,0 -17.043,7.659 -17.043,17.112l-0,24.564c-0,9.384 7.659,17.043 17.043,17.043l6.693,0c9.453,0 17.043,-7.659 17.043,-17.043l-0,-24.564c-0,-9.453 -7.59,-17.112 -17.043,-17.112l-6.693,0Zm13.179,41.055c-0,4.071 -2.553,7.452 -6.555,7.452l-6.555,0c-4.002,0 -6.555,-3.381 -6.555,-7.452l-0,-23.391c-0,-4.071 2.553,-7.452 6.555,-7.452l6.555,0c4.002,0 6.555,3.381 6.555,7.452l-0,23.391Z" style="fill:#fff900;fill-rule:nonzero;"/><path d="M313.66,282.283l10.488,0l-0,-47.886l15.18,0l-0,-10.833l-40.71,0l-0,10.833l15.042,0l-0,47.886Z" style="fill:#ff0075;fill-rule:nonzero;"/></g><path id="Tooth-Bottom-Right" serif:id="Tooth Bottom Right" d="M236,299.989l28.283,28.283l28.283,-28.283l-28.283,-28.283l-28.283,28.283Z" style="fill:#0097ff;"/><path id="Tooth-Bottom-Left" serif:id="Tooth Bottom Left" d="M156,299.989l28.283,28.283l28.283,-28.283l-28.283,-28.283l-28.283,28.283Z" style="fill:#0097ff;"/><path id="Tooth-Top" serif:id="Tooth Top" d="M195.5,208l28.283,28.283l28.283,-28.283l-28.283,-28.283l-28.283,28.283Z" style="fill:#0097ff;"/></g><path id="Eye-Left" serif:id="Eye Left" d="M80,116l56.566,56.566l56.567,-56.566l-56.567,-56.566l-56.566,56.566Z"/><path id="Eye-RIght" serif:id="Eye RIght" d="M206,136l56.566,56.566l56.567,-56.566l-56.567,-56.566l-56.566,56.566Z"/></g></svg>