<?xml version="1.0" encoding="UTF-8"?>
<!--Generator: Apple Native CoreSVG 232.5-->
<!DOCTYPE svg
PUBLIC "-//W3C//DTD SVG 1.1//EN"
       "http://www.w3.org/Graphics/SVG/1.1/DTD/svg11.dtd">
<svg version="1.1" xmlns="http://www.w3.org/2000/svg" xmlns:xlink="http://www.w3.org/1999/xlink" width="49.0938" height="38.5781">
 <g>
  <rect height="38.5781" opacity="0" width="49.0938" x="0" y="0"/>
  <path d="M1.15625 32.8438C1.15625 36.5 3.14062 38.5 6.79688 38.5L32.1406 38.5C35.8281 38.5 37.8438 36.5312 37.8438 32.9062L37.8438 24.2812C37.8438 23.8438 38.1875 23.625 38.625 23.9688C39.7344 24.7969 41.0469 25.6094 42.9844 25.6094C46.4688 25.6094 49.0938 22.9375 49.0938 19.3906C49.0938 15.8281 46.4688 13.1719 42.9844 13.1719C41.0469 13.1719 39.7344 13.9688 38.625 14.8125C38.1875 15.1406 37.8438 14.9219 37.8438 14.4844L37.8438 5.59375C37.8438 1.96875 35.8281 0 32.1406 0L6.79688 0C3.14062 0 1.15625 2 1.15625 5.65625L1.15625 14.4688C1.15625 15.7344 2.09375 16.5781 3.25 16.5781C3.85938 16.5781 4.51562 16.3125 5.125 15.75C6.125 14.8281 7.29688 13.7812 9.51562 13.7812C12.5781 13.7812 14.9062 16.1562 14.9062 19.2812C14.9062 22.4062 12.5781 24.7656 9.51562 24.7656C7.29688 24.7656 6.125 23.7188 5.125 22.7969C4.51562 22.2344 3.85938 21.9688 3.25 21.9688C2.09375 21.9688 1.15625 22.8125 1.15625 24.0781Z" fill="#ffffff" fill-opacity="0.85"/>
 </g>
</svg>
