<?xml version="1.0" encoding="UTF-8"?>
<!--Generator: Apple Native CoreSVG 232.5-->
<!DOCTYPE svg
PUBLIC "-//W3C//DTD SVG 1.1//EN"
       "http://www.w3.org/Graphics/SVG/1.1/DTD/svg11.dtd">
<svg version="1.1" xmlns="http://www.w3.org/2000/svg" xmlns:xlink="http://www.w3.org/1999/xlink" width="34.7969" height="43.8281">
 <g>
  <rect height="43.8281" opacity="0" width="34.7969" x="0" y="0"/>
  <path d="M17.2031 8.60938C19.5938 8.60938 21.5 6.6875 21.5 4.3125C21.5 1.92188 19.5938 0 17.2031 0C14.8125 0 12.8906 1.92188 12.8906 4.3125C12.8906 6.6875 14.8125 8.60938 17.2031 8.60938ZM17.2031 27.2656C18.0469 27.2656 18.4219 27.8125 18.8438 29.25C19.4531 31.2344 21.5781 39.5625 22.1875 42.0156C22.4688 43.2344 23.1094 43.75 24.0469 43.75C25.2969 43.75 26.0469 42.6094 25.7188 41.375C25.5625 40.8438 22.6562 28.8125 22.2969 26.3281C21.9219 23.7969 21.8906 18.25 21.8906 16.5469C21.9062 15.3281 22.4375 14.5781 23.4531 14.3594C24.3906 14.1562 31.9531 13.3125 32.9688 13.0156C33.8438 12.7656 34.4219 12.0625 34.4219 11.1562C34.4219 10.0312 33.5781 9.34375 32.75 9.34375C32.3906 9.34375 32.0625 9.42188 31.6562 9.51562C28.6406 10.0625 21.9375 10.7656 17.2031 10.7656C12.4844 10.7656 5.75 10.0938 2.75 9.51562C2.35938 9.42188 2.01562 9.34375 1.67188 9.34375C0.8125 9.34375 0 10.0312 0 11.1562C0 12.0625 0.546875 12.8281 1.4375 13.0156C2.5 13.2344 10.0156 14.1875 10.9531 14.3594C11.9688 14.5469 12.5156 15.3281 12.5469 16.5469C12.5625 18.25 12.4844 23.7969 12.1094 26.3281C11.7344 28.8125 8.82812 40.8438 8.6875 41.375C8.34375 42.6094 9.10938 43.75 10.3594 43.75C11.2812 43.75 11.9062 43.2344 12.2344 42.0156C12.9062 39.5781 14.9531 31.2656 15.5938 29.25C16.0312 27.8438 16.375 27.2656 17.2031 27.2656Z" fill="#ffffff" fill-opacity="0.85"/>
 </g>
</svg>
